<svg width="16" height="15" viewBox="0 0 16 15" fill="none" xmlns="http://www.w3.org/2000/svg">
<path fill-rule="evenodd" clip-rule="evenodd" d="M11.9764 2.97425C11.6794 1.6176 10.5773 0.501612 9.08973 0.132765C8.37582 -0.0442548 7.62417 -0.0442549 6.91026 0.132765C5.42272 0.501612 4.32058 1.6176 4.02357 2.97425C2.43502 3.36593 1.14717 4.44053 0.559787 5.85692C1.58442 6.21093 2.73224 6.47965 3.94388 6.66308V6.40505C3.94388 6.07761 4.23062 5.81218 4.58432 5.81218C4.93803 5.81218 5.22476 6.07761 5.22476 6.40505V6.82312C7.04432 7.0042 8.95568 7.0042 10.7752 6.82312V6.40505C10.7752 6.07761 11.062 5.81218 11.4157 5.81218C11.7694 5.81218 12.0561 6.07761 12.0561 6.40505V6.66308C13.2678 6.47965 14.4156 6.21093 15.4402 5.85692C14.8528 4.44053 13.565 3.36593 11.9764 2.97425ZM8.75833 1.27814C8.26153 1.15495 7.73846 1.15495 7.24166 1.27814C6.42162 1.48147 5.77366 2.01894 5.45027 2.70665C7.13653 2.42572 8.86346 2.42572 10.5497 2.70664C10.2263 2.01894 9.57837 1.48147 8.75833 1.27814Z" fill="#777E90"/>
<path d="M10.7752 8.01519V9.1718C10.7752 9.49923 11.062 9.76467 11.4157 9.76467C11.7694 9.76467 12.0561 9.49923 12.0561 9.1718V7.86344C13.3891 7.67268 14.6571 7.38487 15.7939 7.00001C16.1079 8.33272 16.0624 9.72457 15.6624 11.0398C15.0964 12.9015 13.4424 14.3246 11.388 14.6963C9.1505 15.1012 6.8495 15.1012 4.61203 14.6963C2.55764 14.3246 0.903645 12.9015 0.337555 11.0398C-0.0623568 9.72457 -0.107878 8.33272 0.20606 7.00001C1.34286 7.38487 2.61086 7.67268 3.94388 7.86344V9.1718C3.94388 9.49923 4.23062 9.76467 4.58432 9.76467C4.93803 9.76467 5.22476 9.49923 5.22476 9.1718V8.01519C7.04875 8.18784 8.95125 8.18784 10.7752 8.01519Z" fill="#777E90"/>
</svg>
