<svg width="16" height="14" viewBox="0 0 16 14" fill="none" xmlns="http://www.w3.org/2000/svg">
<path fill-rule="evenodd" clip-rule="evenodd" d="M10.5523 0.256901C8.87114 -0.0856333 7.12886 -0.0856337 5.44772 0.2569L5.09604 0.328554C2.74815 0.806939 0.897125 2.46661 0.317459 4.61315C-0.10582 6.18057 -0.10582 7.81943 0.317459 9.38686C0.897125 11.5334 2.74815 13.1931 5.09604 13.6714L5.44772 13.7431C7.12886 14.0856 8.87114 14.0856 10.5523 13.7431L10.904 13.6714C13.2518 13.1931 15.1029 11.5334 15.6825 9.38685C16.1058 7.81943 16.1058 6.18057 15.6825 4.61315C15.1029 2.46661 13.2519 0.806939 10.904 0.328554L10.5523 0.256901ZM13.0049 5.29494C13.3224 5.24524 13.6437 5.22756 13.9627 5.24122C14.3131 5.25623 14.5889 5.50864 14.636 5.82834C14.7505 6.60588 14.7505 7.39412 14.636 8.17165C14.5889 8.49136 14.3131 8.74377 13.9627 8.75878C13.6437 8.77244 13.3224 8.75476 13.0049 8.70506L12.9426 8.69531C12.1157 8.56587 11.4768 8.05058 11.2608 7.40125C11.1734 7.13868 11.1734 6.86132 11.2608 6.59875C11.4768 5.94942 12.1157 5.43413 12.9426 5.30469L13.0049 5.29494ZM4.08049 4.64903C4.08049 4.38934 4.30939 4.17883 4.59174 4.17883L8.00002 4.17883C8.28237 4.17883 8.51126 4.38934 8.51126 4.64903C8.51126 4.90871 8.28237 5.11922 8.00002 5.11922H4.59174C4.30939 5.11922 4.08049 4.90871 4.08049 4.64903Z" fill="#777E90"/>
</svg>
