<svg width="22" height="22" viewBox="0 0 22 22" fill="none" xmlns="http://www.w3.org/2000/svg">
<g clip-path="url(#clip0)">
<path d="M8.36136 16.4445C6.82971 16.4445 5.58362 17.6906 5.58362 19.2223C5.58362 20.7539 6.82971 22 8.36136 22C9.89302 22 11.1391 20.7539 11.1391 19.2223C11.1391 17.6906 9.89298 16.4445 8.36136 16.4445ZM8.36136 20.3333C7.74859 20.3333 7.25028 19.835 7.25028 19.2223C7.25028 18.6095 7.74859 18.1112 8.36136 18.1112C8.97384 18.1112 9.47245 18.6095 9.47245 19.2223C9.47245 19.835 8.97414 20.3333 8.36136 20.3333Z" fill="#1D1D1B"/>
<path d="M16.5834 16.4445C15.0518 16.4445 13.8057 17.6906 13.8057 19.2223C13.8057 20.7539 15.0518 22 16.5834 22C18.1151 22 19.3612 20.7539 19.3612 19.2223C19.3612 17.6906 18.1151 16.4445 16.5834 16.4445ZM16.5834 20.3333C15.9706 20.3333 15.4723 19.835 15.4723 19.2223C15.4723 18.6095 15.9706 18.1112 16.5834 18.1112C17.1962 18.1112 17.6945 18.6095 17.6945 19.2223C17.6945 19.835 17.1962 20.3333 16.5834 20.3333Z" fill="#1D1D1B"/>
<path d="M20.9853 5.42582C20.827 5.22692 20.587 5.11112 20.3331 5.11112H5.74167L4.98418 1.28284C4.9178 0.947552 4.65337 0.686732 4.31697 0.625072L0.983677 0.0139732C0.530101 -0.0696437 0.0967624 0.230664 0.0137041 0.683424C-0.0693542 1.13618 0.230352 1.57034 0.683155 1.6534L3.45923 2.16227L5.90474 14.5229C5.98196 14.9132 6.32446 15.1946 6.72222 15.1946H18.3887C18.7768 15.1946 19.1132 14.9271 19.2006 14.5484L21.1451 6.13193C21.2022 5.88443 21.1434 5.62442 20.9853 5.42582ZM17.7259 13.5279H7.40662L6.07137 6.77804H19.285L17.7259 13.5279Z" fill="#1D1D1B"/>
</g>
<defs>
<clipPath id="clip0">
<rect width="22" height="22" fill="white"/>
</clipPath>
</defs>
</svg>
