<svg width="16" height="16" viewBox="0 0 16 16" fill="none" xmlns="http://www.w3.org/2000/svg">
<g clip-path="url(#clip0_2121_5513)">
<path d="M9.9999 8.66751C9.63125 8.66751 9.33328 8.96622 9.33328 9.33413V12.0009C9.33328 12.3682 9.03457 12.6675 8.66654 12.6675H6.66656V2.66758C6.66656 2.09825 6.30389 1.58958 5.75861 1.40025L5.56122 1.33421H8.66654C9.03457 1.33421 9.33328 1.63353 9.33328 2.00096V4.00094C9.33328 4.36885 9.63125 4.66755 9.9999 4.66755C10.3685 4.66755 10.6665 4.36885 10.6665 4.00094V2.00096C10.6665 0.898306 9.76919 0.000976562 8.66654 0.000976562H1.49998C1.47459 0.000976562 1.45335 0.012329 1.4287 0.0156248C1.39659 0.0129393 1.36595 0.000976562 1.33336 0.000976562C0.598016 0.000976562 0 0.598871 0 1.33421V13.3341C0 13.9034 0.362667 14.4121 0.907949 14.6014L4.91999 15.9388C5.05598 15.9808 5.19123 16.0008 5.33332 16.0008C6.06866 16.0008 6.66656 15.4028 6.66656 14.6675V14.0008H8.66654C9.76919 14.0008 10.6665 13.1035 10.6665 12.0009V9.33413C10.6665 8.96622 10.3685 8.66751 9.9999 8.66751Z" fill="#777E90"/>
<path d="M15.805 6.19536L13.1383 3.52876C12.9477 3.33809 12.661 3.28072 12.4117 3.38399C12.1631 3.48738 12.0003 3.73067 12.0003 4.00007V6.00005H9.33373C8.9657 6.00005 8.66699 6.29863 8.66699 6.66667C8.66699 7.03471 8.9657 7.33329 9.33373 7.33329H12.0003V9.33327C12.0003 9.60267 12.1631 9.84596 12.4117 9.94935C12.661 10.0526 12.9477 9.99525 13.1383 9.8047L15.805 7.13798C16.0656 6.87736 16.0656 6.45598 15.805 6.19536Z" fill="#777E90"/>
</g>
<defs>
<clipPath id="clip0_2121_5513">
<rect width="16" height="16" fill="white"/>
</clipPath>
</defs>
</svg>
