<svg width="17" height="17" viewBox="0 0 17 17" fill="none" xmlns="http://www.w3.org/2000/svg">
<g clip-path="url(#clip0)">
<path d="M10.6249 9.20917C10.2332 9.20917 9.91661 9.52655 9.91661 9.91746V12.7508C9.91661 13.1411 9.59923 13.4591 9.20819 13.4591H7.08322V2.83424C7.08322 2.22932 6.69788 1.68887 6.11852 1.48771L5.9088 1.41754H9.20819C9.59923 1.41754 9.91661 1.73556 9.91661 2.12596V4.25093C9.91661 4.64184 10.2332 4.95922 10.6249 4.95922C11.0166 4.95922 11.3332 4.64184 11.3332 4.25093V2.12596C11.3332 0.954389 10.3798 0.000976562 9.20819 0.000976562H1.59373C1.56676 0.000976562 1.54419 0.0130385 1.51799 0.0165404C1.48388 0.013687 1.45132 0.000976562 1.4167 0.000976562C0.635392 0.000976562 0 0.636239 0 1.41754V14.1674C0 14.7723 0.385334 15.3128 0.964696 15.5139L5.22749 16.9349C5.37198 16.9795 5.51568 17.0008 5.66665 17.0008C6.44795 17.0008 7.08322 16.3654 7.08322 15.5841V14.8758H9.20819C10.3798 14.8758 11.3332 13.9224 11.3332 12.7508V9.91746C11.3332 9.52655 11.0166 9.20917 10.6249 9.20917Z" fill="#777E90"/>
<path d="M16.7924 6.5825L13.959 3.74924C13.7565 3.54665 13.4519 3.48569 13.187 3.59541C12.9228 3.70527 12.7499 3.96376 12.7499 4.25V6.37498H9.91666C9.52562 6.37498 9.20825 6.69222 9.20825 7.08326C9.20825 7.4743 9.52562 7.79154 9.91666 7.79154H12.7499V9.91652C12.7499 10.2028 12.9228 10.4613 13.187 10.5711C13.4519 10.6808 13.7565 10.6199 13.959 10.4174L16.7924 7.58403C17.0693 7.30712 17.0693 6.8594 16.7924 6.5825Z" fill="#777E90"/>
</g>
<defs>
<clipPath id="clip0">
<rect width="17" height="17" fill="white"/>
</clipPath>
</defs>
</svg>
