<svg width="17" height="16" viewBox="0 0 17 16" fill="none" xmlns="http://www.w3.org/2000/svg">
<path d="M16.3462 1.70372H7.19231C7.19231 1.00916 6.60589 0.444458 5.88462 0.444458H4.57692C3.85565 0.444458 3.26923 1.00916 3.26923 1.70372H0.653846C0.293005 1.70372 0 1.98508 0 2.33335C0 2.68161 0.293005 2.96298 0.653846 2.96298H3.26923C3.26923 3.65754 3.85565 4.22224 4.57692 4.22224H5.88462C6.60589 4.22224 7.19231 3.65754 7.19231 2.96298H16.3462C16.707 2.96298 17 2.68161 17 2.33335C17 1.98508 16.707 1.70372 16.3462 1.70372ZM4.57692 2.96298V1.70372H5.88462L5.88543 2.33099C5.88543 2.33217 5.88462 2.33295 5.88462 2.33335C5.88462 2.33374 5.88543 2.33453 5.88543 2.33571V2.96298H4.57692Z" fill="#777E90"/>
<path d="M16.3462 7.3704H12.4231C12.4231 6.67584 11.8367 6.11115 11.1154 6.11115H9.80769C9.08642 6.11115 8.5 6.67584 8.5 7.3704H0.653846C0.293005 7.3704 0 7.65177 0 8.00003C0 8.3483 0.293005 8.62966 0.653846 8.62966H8.5C8.5 9.32422 9.08642 9.88892 9.80769 9.88892H11.1154C11.8367 9.88892 12.4231 9.32422 12.4231 8.62966H16.3462C16.707 8.62966 17 8.3483 17 8.00003C17 7.65177 16.707 7.3704 16.3462 7.3704ZM9.80769 8.62966V7.3704H11.1154L11.1162 7.99767C11.1162 7.99885 11.1154 7.99964 11.1154 8.00003C11.1154 8.00043 11.1162 8.00121 11.1162 8.00239V8.62966H9.80769Z" fill="#777E90"/>
<path d="M16.3462 13.037H7.19231C7.19231 12.3425 6.60589 11.7778 5.88462 11.7778H4.57692C3.85565 11.7778 3.26923 12.3425 3.26923 13.037H0.653846C0.293005 13.037 0 13.3184 0 13.6667C0 14.0149 0.293005 14.2963 0.653846 14.2963H3.26923C3.26923 14.9908 3.85565 15.5555 4.57692 15.5555H5.88462C6.60589 15.5555 7.19231 14.9908 7.19231 14.2963H16.3462C16.707 14.2963 17 14.0149 17 13.6667C17 13.3184 16.707 13.037 16.3462 13.037ZM4.57692 14.2963V13.037H5.88462L5.88543 13.6643C5.88543 13.6655 5.88462 13.6663 5.88462 13.6667C5.88462 13.6671 5.88543 13.6678 5.88543 13.669V14.2963H4.57692Z" fill="#777E90"/>
</svg>
