<svg width="16" height="16" viewBox="0 0 16 16" fill="none" xmlns="http://www.w3.org/2000/svg">
<g clip-path="url(#clip0)">
<path d="M0 7.02999V11.1708C0 12.3632 0.966632 13.3298 2.15906 13.3298H13.8409C15.0334 13.3298 16 12.3632 16 11.1708V7.02999C16 6.82263 15.8319 6.6545 15.6245 6.6545H0.375488C0.168125 6.6545 0 6.82263 0 7.02999ZM3.99479 9.6584H2.99349C2.63058 9.6584 2.33638 9.36421 2.33638 9.0013C2.33638 8.63839 2.63058 8.3442 2.99349 8.3442H3.99479C4.3577 8.3442 4.6519 8.63839 4.6519 9.0013C4.6519 9.36421 4.3577 9.6584 3.99479 9.6584Z" fill="#777E90"/>
<path d="M16 4.96482V4.82923C16 3.63681 15.0334 2.67017 13.8409 2.67017H2.15906C0.966632 2.67017 0 3.63681 0 4.82923V4.96482C0 5.17218 0.168125 5.3403 0.375488 5.3403H15.6245C15.8319 5.3403 16 5.17218 16 4.96482Z" fill="#777E90"/>
</g>
<defs>
<clipPath id="clip0">
<rect width="16" height="16" fill="white"/>
</clipPath>
</defs>
</svg>
