<svg width="14" height="15" viewBox="0 0 14 15" fill="none" xmlns="http://www.w3.org/2000/svg">
<path fill-rule="evenodd" clip-rule="evenodd" d="M5.91387 1.26155C6.38251 1.14208 6.87459 1.14208 7.34323 1.26155C8.43644 1.54027 9.21852 2.4669 9.30534 3.55489L9.27296 3.54818C7.52936 3.18677 5.72779 3.18677 3.98419 3.54818L3.95176 3.55491C4.03857 2.4669 4.82065 1.54027 5.91387 1.26155ZM10.5104 3.75699V3.932C11.7319 4.50024 12.6579 5.57369 13.0072 6.88946C13.4192 8.44142 13.32 10.0811 12.7238 11.5746L12.6538 11.75C12.0143 13.3521 10.5582 14.5045 8.82411 14.7809L8.25974 14.8708C7.1794 15.0431 6.07772 15.0431 4.99738 14.8708L4.43302 14.7809C2.69894 14.5045 1.24285 13.3521 0.603347 11.75L0.533332 11.5746C-0.0628337 10.0811 -0.162006 8.44142 0.249961 6.88946C0.599227 5.57372 1.52522 4.50028 2.74666 3.93202V3.75698C2.74666 2.04961 3.92453 0.557703 5.6122 0.127432C6.27865 -0.0424775 6.97844 -0.0424775 7.64489 0.127433C9.33257 0.557703 10.5104 2.04961 10.5104 3.75699ZM6.62858 8.20865C6.89303 8.20865 7.1074 8.41853 7.1074 8.67743V10.24C7.1074 10.4989 6.89303 10.7088 6.62858 10.7088C6.36413 10.7088 6.14976 10.4989 6.14976 10.24V8.67743C6.14976 8.41853 6.36413 8.20865 6.62858 8.20865Z" fill="#777E90"/>
</svg>
