<svg width="12" height="15" viewBox="0 0 12 15" fill="none" xmlns="http://www.w3.org/2000/svg">
<path d="M5.60879 0.0731201C3.65842 0.0731201 2.07733 1.59535 2.07733 3.47312C2.07733 5.35089 3.65842 6.87312 5.60879 6.87312C7.55916 6.87312 9.14025 5.35089 9.14025 3.47312C9.14025 1.59535 7.55916 0.0731201 5.60879 0.0731201Z" fill="#777E90"/>
<path d="M7.69282 8.38575C6.31221 8.17361 4.90538 8.17361 3.52476 8.38575L3.37677 8.40848C1.43142 8.70739 0 10.3229 0 12.2195C0 13.2432 0.861961 14.0731 1.92524 14.0731H9.29234C10.3556 14.0731 11.2176 13.2432 11.2176 12.2195C11.2176 10.3229 9.78616 8.70739 7.84081 8.40848L7.69282 8.38575Z" fill="#777E90"/>
</svg>
