<svg width="12" height="18" viewBox="0 0 12 18" fill="none" xmlns="http://www.w3.org/2000/svg">
<path d="M6 0.415405C2.69256 0.415405 0 3.14713 0 6.50268C0 10.6692 5.36893 16.786 5.5987 17.0421C5.8123 17.2851 6.1877 17.2851 6.40129 17.0421C6.63107 16.7828 12 10.6692 12 6.50268C12.0032 3.14713 9.31068 0.415405 6 0.415405ZM6 9.56602C4.33657 9.56602 2.98058 8.19031 2.98058 6.50268C2.98058 4.81505 4.33657 3.43934 6 3.43934C7.66343 3.43934 9.01942 4.81505 9.01942 6.50268C9.01942 8.19031 7.66667 9.56602 6 9.56602Z" fill="#777E90"/>
</svg>
