<svg width="14" height="14" viewBox="0 0 14 14" fill="none" xmlns="http://www.w3.org/2000/svg">
<g clip-path="url(#clip0)">
<path d="M0.0169274 6.30875C4.68359 6.30875 9.32839 6.30875 13.9994 6.30875C13.9994 6.37 13.9994 6.42687 13.9994 6.48812C13.9994 8.26875 14.0038 10.0537 13.9994 11.8344C13.9994 13.09 13.0941 14 11.8432 14C8.61112 14 5.38338 14 2.15126 14C1.06223 14 0.218115 13.2912 0.034422 12.2281C0.0125538 12.11 0.0125538 11.9875 0.0125538 11.8694C0.0125538 10.0712 0.0125538 8.27312 0.0125538 6.47062C0.00818017 6.41812 0.0125538 6.37 0.0169274 6.30875Z" fill="#777E90"/>
<path d="M2.80813 2.10419C2.80813 1.61419 2.80376 1.15044 2.80813 0.686692C2.81251 0.371693 3.02682 0.104818 3.32422 0.0260675C3.62163 -0.0526824 3.95403 0.0698175 4.09836 0.345443C4.16396 0.472318 4.19895 0.625442 4.20332 0.765442C4.21644 1.14607 4.2077 1.53107 4.2077 1.91169C4.2077 1.96857 4.2077 2.02982 4.2077 2.09544C6.07961 2.09544 7.92966 2.09544 9.80157 2.09544C9.80157 2.02982 9.80157 1.96857 9.80157 1.91169C9.80157 1.52232 9.7972 1.13732 9.80157 0.747942C9.80595 0.310443 10.099 0.00419255 10.5057 0.00856755C10.9125 0.00856755 11.2011 0.314817 11.2011 0.756692C11.2011 1.19857 11.2011 1.64044 11.2011 2.10419C11.4373 2.10419 11.6647 2.10419 11.8922 2.10419C12.4389 2.10419 12.92 2.28794 13.3223 2.65982C13.7422 3.04919 13.974 3.53044 13.9915 4.10794C14.0003 4.36607 13.9915 4.61982 13.9915 4.89107C9.33359 4.89107 4.68005 4.89107 0.0221297 4.89107C-0.0697166 3.93732 0.0614923 3.07107 0.914351 2.47607C1.26862 2.22669 1.66662 2.10419 2.09961 2.10419C2.32703 2.10419 2.55446 2.10419 2.80813 2.10419Z" fill="#777E90"/>
</g>
<defs>
<clipPath id="clip0">
<rect width="14" height="14" fill="white"/>
</clipPath>
</defs>
</svg>
