<svg width="14" height="13" viewBox="0 0 14 13" fill="none" xmlns="http://www.w3.org/2000/svg">
<path fill-rule="evenodd" clip-rule="evenodd" d="M5.27001 1.13353C6.65251 0.839279 8.08529 0.839279 9.46779 1.13353L9.75699 1.19508C10.95 1.44901 11.9871 2.09039 12.7179 2.97848C12.8372 3.12344 12.7971 3.33246 12.6395 3.43843L8.27301 6.37498C7.73016 6.74005 7.00763 6.74005 6.46478 6.37498L2.0983 3.43844C1.94073 3.33247 1.90063 3.12345 2.01992 2.97849C2.7507 2.09039 3.78775 1.44901 4.98081 1.19508L5.27001 1.13353ZM1.66165 4.37739C1.4788 4.25443 1.22392 4.32492 1.1547 4.52877C1.11604 4.64263 1.08145 4.75833 1.0511 4.87572C0.703017 6.22221 0.703017 7.63005 1.0511 8.97653C1.5278 10.8205 3.05 12.2462 4.98081 12.6572L5.27001 12.7187C6.65251 13.013 8.08529 13.013 9.46779 12.7187L9.75699 12.6572C11.6878 12.2462 13.21 10.8205 13.6867 8.97653C14.0348 7.63005 14.0348 6.22221 13.6867 4.87573C13.6563 4.75833 13.6218 4.64262 13.5831 4.52877C13.5139 4.32491 13.259 4.25442 13.0761 4.37738L8.87575 7.20223C7.971 7.8107 6.76679 7.8107 5.86203 7.20223L1.66165 4.37739Z" fill="#777E90"/>
</svg>
