<svg width="14" height="15" viewBox="0 0 14 15" fill="none" xmlns="http://www.w3.org/2000/svg">
<path d="M11.5865 9.91534C10.7407 9.19199 9.88242 8.75382 9.04707 9.47609L8.54826 9.91261C8.1833 10.2295 7.50475 11.7101 4.88122 8.69209C2.25823 5.67792 3.81913 5.20861 4.18463 4.89447L4.68617 4.45739C5.51716 3.73349 5.20356 2.82219 4.60422 1.88412L4.24254 1.31593C3.64047 0.380047 2.98486 -0.234588 2.15169 0.488222L1.70151 0.881588C1.33327 1.14984 0.303967 2.0218 0.0542885 3.67831C-0.246199 5.6659 0.701703 7.94196 2.87341 10.4393C5.04239 12.9377 7.16602 14.1927 9.17764 14.1708C10.8494 14.1528 11.8591 13.2557 12.1749 12.9295L12.6267 12.5356C13.4577 11.8133 12.9414 11.078 12.0951 10.353L11.5865 9.91534Z" fill="#777E90"/>
</svg>
