<svg width="38" height="24" viewBox="0 0 38 24" fill="none" xmlns="http://www.w3.org/2000/svg">
<path d="M23.809 2.46619H13.6748V20.6777H23.809V2.46619Z" fill="#FF5F00"/>
<path d="M14.3157 11.582C14.3141 9.82809 14.7115 8.09681 15.4779 6.51922C16.2443 4.94163 17.3596 3.55908 18.7393 2.47623C17.0308 1.13325 14.9788 0.298069 12.818 0.066148C10.6572 -0.165773 8.47473 0.214917 6.52006 1.16472C4.5654 2.11453 2.91738 3.59513 1.7644 5.43727C0.611425 7.27941 0 9.40878 0 11.582C0 13.7552 0.611425 15.8846 1.7644 17.7267C2.91738 19.5689 4.5654 21.0495 6.52006 21.9993C8.47473 22.9491 10.6572 23.3298 12.818 23.0978C14.9788 22.8659 17.0308 22.0307 18.7393 20.6877C17.3596 19.6049 16.2444 18.2223 15.478 16.6448C14.7116 15.0672 14.3141 13.3359 14.3157 11.582Z" fill="#EB001B"/>
<path d="M37.48 11.582C37.4801 13.7552 36.8687 15.8845 35.7158 17.7267C34.5629 19.5688 32.9149 21.0494 30.9603 21.9992C29.0056 22.949 26.8232 23.3298 24.6624 23.0978C22.5017 22.8659 20.4497 22.0307 18.7412 20.6877C20.1197 19.6038 21.2341 18.221 22.0004 16.6437C22.7667 15.0663 23.1648 13.3356 23.1648 11.582C23.1648 9.82837 22.7667 8.09763 22.0004 6.52029C21.2341 4.94295 20.1197 3.56017 18.7412 2.47623C20.4497 1.13324 22.5017 0.298063 24.6624 0.0661449C26.8232 -0.165773 29.0056 0.214934 30.9603 1.16475C32.9149 2.11456 34.5629 3.59516 35.7158 5.4373C36.8687 7.27945 37.4801 9.40881 37.48 11.582Z" fill="#F79E1B"/>
<path d="M36.3751 18.7503V18.3775H36.5255V18.3015H36.1426V18.3775H36.293V18.7503H36.3751ZM37.1185 18.7503V18.3008H37.0011L36.8661 18.61L36.7311 18.3008H36.6136V18.7503H36.6965V18.4112L36.8231 18.7036H36.9091L37.0356 18.4105V18.7503H37.1185Z" fill="#F79E1B"/>
</svg>
