<svg width="103" height="27" viewBox="0 0 103 27" fill="none" xmlns="http://www.w3.org/2000/svg">
<path d="M38.3854 5.52191H32.7046C32.3159 5.52191 31.9853 5.80009 31.9246 6.17809L29.6271 20.5265C29.5814 20.8096 29.804 21.0649 30.0955 21.0649H32.8076C33.1963 21.0649 33.5269 20.7867 33.5876 20.4079L34.2072 16.5379C34.267 16.1591 34.5985 15.8809 34.9864 15.8809H36.7847C40.5268 15.8809 42.6865 14.0973 43.2505 10.5627C43.5046 9.01637 43.2613 7.80137 42.5261 6.95046C41.7188 6.01609 40.2867 5.52191 38.3854 5.52191ZM39.0408 10.7624C38.7301 12.7702 37.1726 12.7702 35.6667 12.7702H34.8095L35.4108 9.02046C35.4466 8.79382 35.6459 8.62691 35.8785 8.62691H36.2714C37.2972 8.62691 38.2649 8.62691 38.765 9.20291C39.0632 9.54655 39.1546 10.0571 39.0408 10.7624Z" fill="#253B80"/>
<path d="M55.3657 10.6977H52.6453C52.4136 10.6977 52.2134 10.8646 52.1777 11.0913L52.0572 11.8407L51.867 11.5691C51.2781 10.7272 49.9648 10.4457 48.6541 10.4457C45.648 10.4457 43.0805 12.6884 42.5804 15.8343C42.3204 17.4036 42.69 18.9041 43.5938 19.9506C44.4228 20.9127 45.6089 21.3136 47.0202 21.3136C49.4424 21.3136 50.7855 19.7796 50.7855 19.7796L50.6642 20.5241C50.6186 20.8088 50.8412 21.0641 51.1311 21.0641H53.5815C53.971 21.0641 54.3 20.7859 54.3614 20.4071L55.8317 11.2361C55.8782 10.9538 55.6564 10.6977 55.3657 10.6977ZM51.5738 15.9128C51.3113 17.4436 50.0778 18.4713 48.5046 18.4713C47.7146 18.4713 47.0833 18.2217 46.678 17.7488C46.2759 17.2792 46.1231 16.6107 46.251 15.8662C46.4961 14.3485 47.7503 13.2873 49.2995 13.2873C50.072 13.2873 50.7 13.5401 51.1136 14.0171C51.5281 14.499 51.6926 15.1716 51.5738 15.9128Z" fill="#253B80"/>
<path d="M69.8542 10.6977H67.1205C66.8597 10.6977 66.6147 10.8254 66.4668 11.0389L62.6965 16.5093L61.0984 11.2525C60.9979 10.9235 60.6897 10.6977 60.3408 10.6977H57.6545C57.3281 10.6977 57.1013 11.0119 57.2051 11.3146L60.2162 20.0184L57.3854 23.9547C57.1628 24.2648 57.387 24.6911 57.7716 24.6911H60.502C60.7611 24.6911 61.0037 24.5667 61.1507 24.3573L70.2429 11.43C70.4606 11.1207 70.2371 10.6977 69.8542 10.6977Z" fill="#253B80"/>
<path d="M78.9049 5.52191H73.2233C72.8354 5.52191 72.5048 5.80009 72.4442 6.17809L70.1466 20.5265C70.1009 20.8096 70.3235 21.0649 70.6134 21.0649H73.529C73.7998 21.0649 74.0315 20.8702 74.0739 20.6051L74.7259 16.5379C74.7857 16.1591 75.1172 15.8809 75.5051 15.8809H77.3026C81.0455 15.8809 83.2043 14.0973 83.7692 10.5627C84.0242 9.01637 83.7791 7.80137 83.044 6.95046C82.2375 6.01609 80.8063 5.52191 78.9049 5.52191ZM79.5603 10.7624C79.2505 12.7702 77.693 12.7702 76.1862 12.7702H75.3298L75.932 9.02046C75.9678 8.79382 76.1654 8.62691 76.3989 8.62691H76.7918C77.8168 8.62691 78.7853 8.62691 79.2853 9.20291C79.5836 9.54655 79.6741 10.0571 79.5603 10.7624Z" fill="#179BD7"/>
<path d="M95.8846 10.6977H93.1659C92.9325 10.6977 92.734 10.8646 92.6991 11.0913L92.5786 11.8407L92.3876 11.5691C91.7987 10.7272 90.4862 10.4457 89.1755 10.4457C86.1694 10.4457 83.6027 12.6884 83.1026 15.8343C82.8435 17.4036 83.2114 18.9041 84.1152 19.9506C84.9458 20.9127 86.1303 21.3136 87.5416 21.3136C89.9638 21.3136 91.3069 19.7796 91.3069 19.7796L91.1856 20.5241C91.14 20.8088 91.3626 21.0641 91.6541 21.0641H94.1037C94.4916 21.0641 94.8222 20.7859 94.8828 20.4071L96.3539 11.2361C96.3988 10.9538 96.1762 10.6977 95.8846 10.6977ZM92.0927 15.9128C91.8319 17.4436 90.5967 18.4713 89.0235 18.4713C88.2352 18.4713 87.6022 18.2217 87.1969 17.7488C86.7949 17.2792 86.6437 16.6107 86.7699 15.8662C87.0166 14.3485 88.2692 13.2873 89.8184 13.2873C90.5909 13.2873 91.2189 13.5401 91.6325 14.0171C92.0487 14.499 92.2132 15.1716 92.0927 15.9128Z" fill="#179BD7"/>
<path d="M99.0915 5.91545L96.7599 20.5265C96.7142 20.8096 96.9368 21.0649 97.2267 21.0649H99.5708C99.9603 21.0649 100.291 20.7867 100.351 20.4079L102.65 6.06027C102.696 5.77718 102.473 5.52109 102.183 5.52109H99.5583C99.3266 5.52191 99.1272 5.68881 99.0915 5.91545Z" fill="#179BD7"/>
<path d="M6.03501 23.8533L6.46944 21.1353L5.50174 21.1132H0.880859L4.09213 1.0571C4.1021 0.996557 4.1345 0.940102 4.18184 0.900011C4.22919 0.85992 4.28983 0.83783 4.35296 0.83783H12.1444C14.731 0.83783 16.5161 1.36801 17.4481 2.41447C17.885 2.90538 18.1633 3.41838 18.2978 3.98292C18.439 4.57528 18.4415 5.28301 18.3036 6.14619L18.2937 6.20919V6.76228L18.7306 7.0061C19.0986 7.19838 19.391 7.41847 19.6152 7.67047C19.989 8.09019 20.2307 8.62365 20.3329 9.2561C20.4384 9.90656 20.4035 10.6806 20.2307 11.5568C20.0314 12.5648 19.7091 13.4427 19.2738 14.1611C18.8735 14.823 18.3634 15.372 17.7579 15.7975C17.1798 16.2016 16.4928 16.5085 15.7162 16.7048C14.9636 16.8979 14.1056 16.9953 13.1644 16.9953H12.5581C12.1245 16.9953 11.7033 17.1491 11.3727 17.4248C11.0413 17.7063 10.822 18.0908 10.7547 18.5114L10.7091 18.756L9.94154 23.5465L9.90665 23.7224C9.89751 23.778 9.88173 23.8058 9.85847 23.8246C9.83771 23.8418 9.8078 23.8533 9.77873 23.8533H6.03501Z" fill="#253B80"/>
<path d="M19.145 6.27301C19.1218 6.41946 19.0952 6.56919 19.0653 6.72301C18.0378 11.9193 14.5225 13.7144 10.0328 13.7144H7.74691C7.19786 13.7144 6.73519 14.1071 6.64963 14.6406L5.47925 21.9518L5.14782 24.0243C5.09217 24.3745 5.36628 24.6903 5.72512 24.6903H9.7795C10.2596 24.6903 10.6675 24.3466 10.743 23.8803L10.7829 23.6774L11.5463 18.9057L11.5953 18.6439C11.67 18.1759 12.0787 17.8323 12.5588 17.8323H13.1652C17.0933 17.8323 20.1684 16.2614 21.0671 11.7156C21.4426 9.81656 21.2482 8.23092 20.2548 7.11574C19.9541 6.77946 19.5811 6.50046 19.145 6.27301Z" fill="#179BD7"/>
<path d="M18.07 5.85082C17.913 5.80582 17.751 5.76491 17.5849 5.72809C17.4179 5.69209 17.2468 5.66019 17.0707 5.63237C16.4544 5.53419 15.779 5.48755 15.0555 5.48755H8.94864C8.79829 5.48755 8.65542 5.52109 8.5275 5.58164C8.24591 5.715 8.03659 5.97764 7.98592 6.29919L6.68679 14.4041L6.64941 14.6405C6.73497 14.1071 7.19764 13.7144 7.7467 13.7144H10.0326C14.5223 13.7144 18.0376 11.9185 19.0651 6.723C19.0958 6.56919 19.1216 6.41946 19.1448 6.273C18.8848 6.13719 18.6032 6.021 18.3 5.922C18.2253 5.89746 18.148 5.87373 18.07 5.85082Z" fill="#222D65"/>
<path d="M7.98581 6.29918C8.03648 5.97764 8.2458 5.715 8.52739 5.58245C8.65614 5.52191 8.79818 5.48836 8.94853 5.48836H15.0554C15.7789 5.48836 16.4542 5.535 17.0706 5.63318C17.2467 5.661 17.4178 5.69291 17.5847 5.72891C17.7509 5.76573 17.9129 5.80664 18.0698 5.85164C18.1479 5.87455 18.2252 5.89827 18.3008 5.922C18.6039 6.021 18.8855 6.138 19.1455 6.273C19.4512 4.35273 19.143 3.04527 18.0889 1.86136C16.9269 0.558 14.8295 0 12.1457 0H4.35423C3.80601 0 3.33835 0.392727 3.25363 0.927L0.00829717 21.1893C-0.0556625 21.5902 0.258321 21.9518 0.66866 21.9518H5.47893L6.68668 14.4041L7.98581 6.29918Z" fill="#253B80"/>
</svg>
