<svg width="14" height="15" viewBox="0 0 14 15" fill="none" xmlns="http://www.w3.org/2000/svg">
<g clip-path="url(#clip0)">
<path d="M8.64576 2.61505L0.942758 10.3186C0.904005 10.3575 0.876022 10.4066 0.862697 10.4593L0.00889325 13.8863C-0.0166465 13.9894 0.0136681 14.0991 0.0889547 14.1744C0.145919 14.2314 0.223538 14.2629 0.302933 14.2629C0.327251 14.2629 0.352125 14.2599 0.376332 14.2538L3.80332 13.3999C3.85673 13.3866 3.90525 13.3587 3.94401 13.32L11.6477 5.61697L8.64576 2.61505Z" fill="#44B3FA"/>
<path d="M13.5561 1.56473L12.6986 0.707257C12.1255 0.134169 11.1267 0.134724 10.5543 0.707257L9.50391 1.75761L12.5057 4.75941L13.5561 3.70906C13.8423 3.42291 14 3.04203 14 2.63695C14 2.23187 13.8423 1.85099 13.5561 1.56473Z" fill="#44B3FA"/>
</g>
<defs>
<clipPath id="clip0">
<rect width="14" height="14" fill="white" transform="translate(0 0.263611)"/>
</clipPath>
</defs>
</svg>
