<svg width="108" height="81" viewBox="0 0 108 81" fill="none" xmlns="http://www.w3.org/2000/svg">
<path d="M106.82 31.3698C91.85 28.1661 75.5324 26.1121 60.5816 30.208C56.2463 31.3946 51.7792 33.3454 48.1499 35.9942C45.6195 35.1102 42.9266 34.3045 40.228 33.902C29.9214 32.0571 18.7988 33.7088 8.97909 37.4362C11.9331 34.0114 15.0077 30.6286 17.9197 27.3241C19.0267 26.0902 16.8692 24.5261 15.7621 25.7601C11.5384 30.4971 7.31479 35.2342 3.16958 40.1337C2.6763 40.7717 3.06287 41.9872 3.82788 42.1194C10.6232 43.9531 17.4971 45.9492 24.2924 47.7829C25.9009 48.2098 26.7839 45.6821 25.1755 45.2553C19.5066 43.68 13.8377 42.1048 8.16884 40.5296C15.6402 37.3323 24.0165 35.8016 31.9666 35.8779C36.6885 35.9068 41.3206 36.5796 45.8209 38.0167C43.817 39.8827 42.1326 41.9954 40.846 44.5172C37.8581 50.3612 38.2803 57.6666 43.0969 62.4556C46.8767 66.3421 52.6297 67.6766 57.8812 67.3503C62.4462 67.0543 67.401 64.8686 69.2398 60.3789C71.7038 54.4868 66.3017 48.2779 62.4378 44.6321C59.0502 41.5578 55.2113 39.0013 51.1202 37.1669C55.3156 34.4458 60.3431 32.8257 65.1604 31.8075C78.5165 29.1804 92.738 31.0424 105.936 33.8975C107.587 34.204 108.47 31.6763 106.82 31.3698ZM54.8831 42.263C58.6435 44.6571 62.0731 47.611 64.7265 51.239C66.1918 53.2365 67.5254 55.9984 67.0038 58.6523C66.0505 63.3163 60.2579 64.8042 56.1806 64.8654C50.8926 64.9088 45.3555 62.5693 42.8397 57.7738C40.2453 52.8158 42.1068 46.7133 45.5177 42.3676C46.4623 41.212 47.5273 40.0984 48.6707 39.1473C50.6771 39.9833 52.8824 41.0238 54.8831 42.263Z" fill="#F8E4AB"/>
</svg>
