<svg width="18" height="17" viewBox="0 0 18 17" fill="none" xmlns="http://www.w3.org/2000/svg">
<path d="M7.09789 1.8541C7.69659 0.0114822 10.3034 0.0114799 10.9021 1.8541L11.4697 3.60081C11.7374 4.42486 12.5053 4.98278 13.3718 4.98278H15.2084C17.1458 4.98278 17.9514 7.46201 16.3839 8.60081L14.8981 9.68034C14.1971 10.1896 13.9038 11.0924 14.1716 11.9164L14.7391 13.6631C15.3378 15.5057 13.2288 17.038 11.6614 15.8992L10.1756 14.8197C9.4746 14.3104 8.5254 14.3104 7.82443 14.8197L6.33859 15.8992C4.77116 17.038 2.6622 15.5057 3.2609 13.6631L3.82844 11.9164C4.09619 11.0924 3.80288 10.1896 3.1019 9.68034L1.61606 8.60081C0.048635 7.46201 0.854185 4.98278 2.79163 4.98278H4.62823C5.49468 4.98278 6.2626 4.42486 6.53035 3.60081L7.09789 1.8541Z" fill="#20BC42"/>
</svg>
