<svg width="12" height="15" viewBox="0 0 12 15" fill="none" xmlns="http://www.w3.org/2000/svg">
<path d="M6 0C3.91359 0 2.22222 1.63096 2.22222 3.64286C2.22222 5.65475 3.91359 7.28571 6 7.28571C8.08641 7.28571 9.77778 5.65475 9.77778 3.64286C9.77778 1.63096 8.08641 0 6 0Z" fill="#777E90"/>
<path d="M8.22939 8.90638C6.75248 8.6791 5.24752 8.6791 3.77061 8.90638L3.6123 8.93075C1.53126 9.25101 0 10.9819 0 13.014C0 14.1109 0.922082 15 2.05953 15H9.94047C11.0779 15 12 14.1109 12 13.014C12 10.9819 10.4687 9.25101 8.3877 8.93075L8.22939 8.90638Z" fill="#777E90"/>
</svg>
