<svg width="13" height="17" viewBox="0 0 13 17" fill="none" xmlns="http://www.w3.org/2000/svg">
<path d="M6.5 0C4.23972 0 2.40741 1.84842 2.40741 4.12857C2.40741 6.40872 4.23972 8.25714 6.5 8.25714C8.76028 8.25714 10.5926 6.40872 10.5926 4.12857C10.5926 1.84842 8.76028 0 6.5 0Z" fill="#777E90"/>
<path d="M8.91518 10.0939C7.31518 9.83631 5.68482 9.83631 4.08482 10.0939L3.91332 10.1215C1.65887 10.4845 0 12.4462 0 14.7492C0 15.9923 0.998922 17 2.23115 17H10.7688C12.0011 17 13 15.9923 13 14.7492C13 12.4462 11.3411 10.4845 9.08668 10.1215L8.91518 10.0939Z" fill="#777E90"/>
</svg>
