<svg width="57" height="19" viewBox="0 0 57 19" fill="none" xmlns="http://www.w3.org/2000/svg">
<path d="M24.4913 18.0228H19.8814L22.7625 0.316389H27.3729L24.4913 18.0228ZM16.0032 0.316389L11.6084 12.495L11.0883 9.87249L11.0888 9.87344L9.53763 1.91065C9.53763 1.91065 9.35007 0.316389 7.35085 0.316389H0.0852548L0 0.616201C0 0.616201 2.22183 1.07847 4.8221 2.64005L8.82717 18.0233H13.6303L20.9646 0.316389H16.0032ZM52.2625 18.0228H56.4954L52.8048 0.315916H49.0991C47.3879 0.315916 46.9711 1.63547 46.9711 1.63547L40.0957 18.0228H44.9013L45.8623 15.3927H51.7226L52.2625 18.0228ZM47.1899 11.7595L49.612 5.13328L50.9747 11.7595H47.1899ZM40.4562 4.57439L41.1141 0.772027C41.1141 0.772027 39.084 0 36.9678 0C34.6802 0 29.2476 0.999847 29.2476 5.86173C29.2476 10.4361 35.6237 10.493 35.6237 12.8957C35.6237 15.2985 29.9045 14.8679 28.017 13.3528L27.3317 17.3285C27.3317 17.3285 29.3901 18.3283 32.5351 18.3283C35.681 18.3283 40.4268 16.6995 40.4268 12.2663C40.4268 7.6625 33.9934 7.23386 33.9934 5.23227C33.9939 3.23021 38.4835 3.48739 40.4562 4.57439Z" fill="#1A1F71"/>
<path d="M11.3588 10.4385L9.76986 2.02604C9.76986 2.02604 9.57773 0.341751 7.52983 0.341751H0.0873307L0 0.658493C0 0.658493 3.57716 1.42308 7.00828 4.28776C10.289 7.02585 11.3588 10.4385 11.3588 10.4385Z" fill="#E6A540"/>
</svg>
