<svg width="149" height="34" viewBox="0 0 149 34" fill="none" xmlns="http://www.w3.org/2000/svg">
<path d="M6.29134 5.50378H21.2333V0.617249H0V33.6399H6.29134V20.2148H18.9265V15.2769H6.29134V5.50378Z" fill="white"/>
<path d="M44.7211 21.8608C44.7211 20.0091 44.459 18.3631 43.8823 16.8714C43.3056 15.3797 42.5192 14.0938 41.523 13.0651C40.5269 12.0363 39.2686 11.2133 37.8007 10.6475C36.3327 10.0817 34.7074 9.82452 32.9249 9.82452C31.1423 9.82452 29.5171 10.0817 28.0491 10.6475C26.5811 11.2133 25.3228 11.9849 24.3267 13.0651C23.3306 14.1453 22.4917 15.3797 21.915 16.8714C21.3383 18.3631 21.0762 20.0091 21.0762 21.8608C21.0762 23.7126 21.3383 25.41 21.915 26.9017C22.4917 28.3934 23.2781 29.6793 24.3267 30.708C25.3753 31.7368 26.5811 32.5598 28.0491 33.1256C29.5171 33.6914 31.1423 33.9486 32.9249 33.9486C34.7074 33.9486 36.3327 33.6914 37.8007 33.1256C39.2686 32.5598 40.4745 31.7368 41.523 30.708C42.5716 29.6793 43.358 28.3934 43.8823 26.9017C44.459 25.41 44.7211 23.764 44.7211 21.8608ZM37.3812 27.6732C36.4375 28.9592 34.9696 29.6279 32.9773 29.6279C30.985 29.6279 29.4646 28.9592 28.5209 27.6732C27.5772 26.3359 27.0529 24.4327 27.0529 21.9123C27.0529 19.3918 27.5248 17.4887 28.5209 16.1513C29.4646 14.8139 30.985 14.1453 32.9773 14.1453C34.9696 14.1453 36.4375 14.8139 37.3812 16.1513C38.3249 17.4887 38.7968 19.3918 38.7968 21.9123C38.7968 24.4327 38.3249 26.3873 37.3812 27.6732Z" fill="white"/>
<path d="M67.527 10.236H62.2318C61.9172 10.236 61.7075 10.2875 61.4978 10.4418C61.2881 10.5961 61.0784 10.8018 60.9211 11.059L56.8841 17.2315C56.7268 17.4887 56.5696 17.7459 56.4647 18.003C56.3599 18.2602 56.255 18.5174 56.1501 18.7746L51.1695 10.9561C51.0122 10.699 50.8549 10.4932 50.6452 10.3903C50.4355 10.2875 50.1209 10.236 49.7015 10.236H44.1442L52.0083 21.6036L43.8296 33.64H48.9675C49.3345 33.64 49.6491 33.5371 49.9112 33.3313C50.1734 33.1256 50.3831 32.8684 50.5404 32.6112L54.9967 25.8215C55.2589 25.4614 55.4162 24.9985 55.5734 24.4327L60.6589 32.6112C60.8162 32.8684 61.0259 33.1256 61.2881 33.3313C61.5502 33.5371 61.8648 33.64 62.2842 33.64H67.8416L59.6628 21.295L67.527 10.236Z" fill="white"/>
<path d="M94.7374 5.40093C93.2694 3.96068 91.5393 2.82906 89.547 2.05751C87.5547 1.28595 85.3003 0.874451 82.8362 0.874451H70.3584V33.5885H82.8362C85.3003 33.5885 87.5023 33.177 89.547 32.4055C91.5393 31.6339 93.2694 30.5023 94.7374 29.062C96.2053 27.6218 97.3063 25.9244 98.0928 23.9183C98.8792 21.9123 99.2986 19.7005 99.2986 17.2315C99.2986 14.7625 98.8792 12.5507 98.0928 10.5446C97.3063 8.5386 96.1529 6.84117 94.7374 5.40093ZM93.7937 22.6838C93.217 24.2784 92.4305 25.6158 91.4344 26.6959C90.4383 27.7761 89.18 28.5991 87.712 29.2164C86.244 29.7822 84.6188 30.0908 82.8362 30.0908H74.9196V4.47506H82.8362C84.6188 4.47506 86.244 4.78368 87.712 5.34949C89.18 5.9153 90.4383 6.78973 91.4344 7.86991C92.4305 8.95009 93.2694 10.2875 93.7937 11.882C94.3704 13.4766 94.6325 15.2769 94.6325 17.2829C94.6325 19.289 94.3179 21.0893 93.7937 22.6838Z" fill="white"/>
<path d="M118.749 12.8593C117.858 11.9849 116.862 11.3162 115.656 10.8532C114.45 10.3903 113.139 10.1331 111.724 10.1331C109.994 10.1331 108.473 10.4417 107.11 11.0075C105.747 11.5734 104.594 12.3964 103.65 13.4251C102.706 14.4538 101.972 15.6883 101.448 17.0771C100.924 18.4659 100.714 20.0091 100.714 21.6036C100.714 23.6097 100.976 25.3585 101.553 26.9016C102.129 28.4448 102.916 29.7307 103.912 30.7594C104.908 31.7882 106.114 32.6112 107.477 33.1256C108.84 33.6399 110.361 33.9485 111.986 33.9485C112.825 33.9485 113.716 33.8971 114.555 33.7428C115.446 33.5885 116.285 33.3827 117.071 33.0741C117.91 32.7655 118.644 32.4054 119.378 31.9425C120.112 31.4796 120.689 30.9652 121.213 30.3479L120.06 28.8563C119.85 28.5991 119.588 28.4448 119.273 28.4448C119.011 28.4448 118.697 28.5476 118.33 28.8048C117.963 29.062 117.491 29.3192 116.967 29.5764C116.442 29.8336 115.761 30.0908 115.027 30.3479C114.293 30.6051 113.401 30.708 112.353 30.708C111.252 30.708 110.203 30.5537 109.312 30.1936C108.421 29.8336 107.634 29.3192 107.005 28.5476C106.376 27.8275 105.852 26.9016 105.485 25.8215C105.118 24.7413 104.908 23.4554 104.856 22.0151H120.532C120.899 22.0151 121.161 21.9122 121.318 21.7065C121.475 21.5007 121.528 21.0892 121.528 20.4206C121.528 18.7746 121.266 17.3343 120.794 16.0484C120.322 14.7625 119.64 13.7337 118.749 12.8593ZM104.961 19.5461C105.223 17.5401 105.957 15.9455 107.11 14.8139C108.263 13.6823 109.836 13.1165 111.829 13.1165C112.772 13.1165 113.611 13.2708 114.345 13.5794C115.079 13.888 115.708 14.351 116.233 14.9168C116.757 15.4826 117.124 16.1513 117.386 16.9743C117.648 17.7458 117.805 18.6203 117.805 19.5461H104.961Z" fill="white"/>
<path d="M139.668 12.4992C138.986 11.7277 138.095 11.1618 137.099 10.6989C136.103 10.236 134.897 10.0817 133.586 10.0817C131.751 10.0817 130.074 10.3903 128.606 11.0075C127.085 11.6248 125.67 12.5507 124.412 13.7851L125.146 15.0711C125.25 15.2768 125.46 15.4826 125.67 15.5854C125.88 15.6883 126.142 15.7912 126.404 15.7912C126.771 15.7912 127.138 15.6883 127.505 15.4311C127.872 15.1739 128.291 14.9168 128.815 14.6081C129.34 14.2995 129.916 13.9909 130.598 13.7851C131.28 13.528 132.118 13.4251 133.167 13.4251C134.687 13.4251 135.841 13.888 136.627 14.8139C137.414 15.7398 137.781 17.1286 137.781 18.9289V20.7292C135.107 20.7292 132.852 20.9349 131.017 21.3464C129.182 21.7579 127.662 22.3237 126.561 22.941C125.408 23.6097 124.569 24.3298 124.097 25.2042C123.573 26.0272 123.311 26.9531 123.311 27.8275C123.311 28.8563 123.468 29.7821 123.835 30.5537C124.202 31.3252 124.674 31.9425 125.25 32.4569C125.827 32.9712 126.509 33.3313 127.347 33.5885C128.134 33.8457 129.025 33.9485 129.916 33.9485C130.808 33.9485 131.647 33.8971 132.381 33.7428C133.115 33.5885 133.796 33.3827 134.478 33.0741C135.107 32.7655 135.736 32.4054 136.365 31.9939C136.942 31.5824 137.571 31.0681 138.2 30.5022L138.672 32.6626C138.724 33.0741 138.934 33.3313 139.144 33.4342C139.406 33.537 139.72 33.6399 140.14 33.6399H141.975V18.826C141.975 17.5401 141.818 16.357 141.451 15.2768C140.926 14.1966 140.402 13.2708 139.668 12.4992ZM137.728 28.0333C137.256 28.4962 136.784 28.9591 136.313 29.3192C135.841 29.6792 135.317 30.0393 134.792 30.2965C134.268 30.5537 133.691 30.7594 133.062 30.9137C132.433 31.0681 131.804 31.1195 131.07 31.1195C130.546 31.1195 130.021 31.0681 129.549 30.9137C129.078 30.7594 128.658 30.5537 128.344 30.2965C127.977 29.9879 127.714 29.6278 127.505 29.2163C127.295 28.8048 127.19 28.239 127.19 27.6218C127.19 27.0045 127.4 26.3873 127.767 25.8729C128.134 25.3585 128.763 24.8956 129.602 24.5355C130.441 24.1755 131.542 23.8668 132.852 23.6097C134.163 23.3525 135.788 23.2496 137.728 23.2496V28.0333Z" fill="white"/>
<path d="M149 0H144.858V33.6399H149V0Z" fill="white"/>
</svg>
