<svg width="149" height="34" viewBox="0 0 149 34" fill="none" xmlns="http://www.w3.org/2000/svg">
<path d="M21.2333 0.617188V5.50372H6.29134V15.2768H18.874V20.1633H6.29134V33.6399H0V0.617188H21.2333Z" fill="#D41257"/>
<path d="M32.9247 9.82446C34.7072 9.82446 36.3325 10.0816 37.8005 10.6475C39.2685 11.2133 40.4743 11.9848 41.5229 13.065C42.5714 14.1452 43.3578 15.3797 43.8821 16.8714C44.4588 18.363 44.721 20.009 44.721 21.8608C44.721 23.7125 44.4588 25.4099 43.8821 26.9016C43.3054 28.3933 42.519 29.6792 41.5229 30.708C40.5267 31.7367 39.2685 32.5597 37.8005 33.1255C36.3325 33.6913 34.7072 33.9485 32.9247 33.9485C31.1421 33.9485 29.5169 33.6913 28.0489 33.1255C26.5809 32.5597 25.3226 31.7367 24.3265 30.708C23.3304 29.6792 22.4915 28.3933 21.9148 26.9016C21.3381 25.4099 21.076 23.7125 21.076 21.8608C21.076 20.009 21.3381 18.363 21.9148 16.8714C22.4915 15.3797 23.278 14.0938 24.3265 13.065C25.3751 12.0363 26.5809 11.2133 28.0489 10.6475C29.5169 10.1331 31.1421 9.82446 32.9247 9.82446ZM32.9247 29.6278C34.9169 29.6278 36.3849 28.9591 37.3286 27.6732C38.2723 26.3872 38.7442 24.4326 38.7442 21.9122C38.7442 19.3918 38.2723 17.4372 37.3286 16.1512C36.3849 14.8139 34.9169 14.1452 32.9247 14.1452C30.9324 14.1452 29.412 14.8139 28.4683 16.1512C27.5246 17.4886 27.0003 19.3918 27.0003 21.9122C27.0003 24.4326 27.4722 26.3358 28.4683 27.6732C29.412 29.0105 30.9324 29.6278 32.9247 29.6278Z" fill="#D41257"/>
<path d="M52.0085 21.5522L44.1443 10.1846H49.7016C50.1211 10.1846 50.4356 10.236 50.6453 10.3389C50.855 10.4418 51.0123 10.6475 51.1696 10.9047L56.1503 18.7231C56.2027 18.466 56.3075 18.2088 56.4648 17.9516C56.5697 17.6944 56.727 17.4372 56.8843 17.18L60.9212 11.0076C61.1309 10.6989 61.2882 10.4932 61.4979 10.3903C61.7076 10.236 61.9698 10.1846 62.2319 10.1846H67.5271L59.6629 21.295L67.8417 33.6399H62.2843C61.8649 33.6399 61.5503 33.5371 61.2882 33.3313C61.0261 33.1256 60.8163 32.8684 60.6591 32.6112L55.5736 24.4327C55.4163 24.9985 55.259 25.4614 54.9969 25.8215L50.5405 32.6112C50.3832 32.8684 50.1735 33.1256 49.9113 33.3313C49.6492 33.5371 49.3346 33.6399 48.9676 33.6399H43.8297L52.0085 21.5522Z" fill="#D41257"/>
<path d="M99.246 17.2829C99.246 19.7519 98.8266 21.9637 98.0401 23.9698C97.2537 25.9758 96.1527 27.7247 94.6848 29.1135C93.2168 30.5537 91.4866 31.6339 89.4944 32.4569C87.5021 33.2285 85.2477 33.64 82.7836 33.64H70.3058V0.925903H82.836C85.3002 0.925903 87.5021 1.3374 89.5468 2.10896C91.5391 2.88052 93.2692 4.01214 94.7372 5.45238C96.2052 6.89262 97.3061 8.64149 98.0926 10.6475C98.879 12.6536 99.246 14.8654 99.246 17.2829ZM94.6323 17.2829C94.6323 15.2769 94.3702 13.4766 93.7935 11.882C93.2168 10.2875 92.4303 8.95011 91.4342 7.86993C90.4381 6.78975 89.1798 5.91531 87.7118 5.3495C86.2439 4.78369 84.6186 4.47507 82.836 4.47507H74.9194V30.0394H82.836C84.6186 30.0394 86.2439 29.7307 87.7118 29.1649C89.1798 28.5991 90.4381 27.7761 91.4342 26.6445C92.4303 25.5129 93.2692 24.227 93.7935 22.6324C94.3178 21.0893 94.6323 19.289 94.6323 17.2829Z" fill="#1D1D1B"/>
<path d="M111.776 10.1332C113.192 10.1332 114.502 10.3904 115.708 10.8533C116.914 11.3162 117.91 11.9849 118.802 12.8594C119.693 13.7338 120.374 14.814 120.846 16.0999C121.318 17.3858 121.58 18.8775 121.58 20.4721C121.58 21.0893 121.528 21.5522 121.371 21.758C121.213 21.9637 120.951 22.0666 120.584 22.0666H104.856C104.908 23.5069 105.065 24.7928 105.485 25.873C105.904 26.9531 106.376 27.879 107.005 28.5991C107.634 29.3193 108.421 29.8851 109.312 30.2451C110.203 30.6052 111.2 30.7595 112.353 30.7595C113.401 30.7595 114.293 30.6566 115.027 30.3994C115.761 30.1423 116.442 29.8851 116.967 29.6279C117.491 29.3707 117.963 29.1135 118.33 28.8563C118.697 28.5991 119.011 28.4963 119.273 28.4963C119.64 28.4963 119.903 28.6506 120.06 28.9078L121.213 30.3994C120.689 31.0167 120.112 31.5311 119.378 31.994C118.644 32.4569 117.91 32.817 117.071 33.1256C116.233 33.4342 115.394 33.64 114.555 33.7943C113.664 33.9486 112.825 34 111.986 34C110.361 34 108.84 33.7429 107.477 33.1771C106.114 32.6112 104.908 31.8397 103.912 30.8109C102.916 29.7822 102.129 28.4963 101.553 26.9532C100.976 25.41 100.714 23.6612 100.714 21.6551C100.714 20.0606 100.976 18.5174 101.448 17.1286C101.972 15.7398 102.654 14.5053 103.65 13.4766C104.594 12.4479 105.747 11.6249 107.11 11.059C108.526 10.4418 110.046 10.1332 111.776 10.1332ZM111.829 13.1165C109.836 13.1165 108.264 13.6823 107.11 14.814C105.957 15.9456 105.223 17.5401 104.961 19.5462H117.805C117.805 18.6203 117.648 17.7459 117.386 16.9743C117.124 16.2028 116.757 15.5341 116.233 14.9168C115.708 14.351 115.079 13.8881 114.345 13.5795C113.611 13.2708 112.772 13.1165 111.829 13.1165Z" fill="#1D1D1B"/>
<path d="M141.817 33.6399H139.982C139.563 33.6399 139.248 33.5885 138.986 33.4342C138.724 33.3313 138.567 33.0741 138.514 32.6626L138.043 30.5022C137.413 31.068 136.837 31.531 136.208 31.9939C135.631 32.4054 135.002 32.8169 134.32 33.0741C133.691 33.3827 132.957 33.5885 132.223 33.7428C131.489 33.8971 130.65 33.9485 129.759 33.9485C128.868 33.9485 127.976 33.8457 127.19 33.5885C126.404 33.3313 125.722 32.9712 125.093 32.4569C124.516 31.9425 124.044 31.3252 123.677 30.5537C123.31 29.7821 123.153 28.8562 123.153 27.8275C123.153 26.9016 123.415 26.0272 123.939 25.2042C124.464 24.3812 125.303 23.6097 126.404 22.941C127.557 22.2723 129.025 21.7579 130.86 21.3464C132.695 20.9349 134.949 20.7292 137.623 20.7292V18.9289C137.623 17.1286 137.256 15.7398 136.47 14.8139C135.683 13.888 134.53 13.4251 133.009 13.4251C132.013 13.4251 131.174 13.528 130.44 13.7851C129.759 14.0423 129.13 14.2995 128.658 14.6081C128.134 14.9168 127.714 15.2254 127.347 15.4311C126.98 15.6883 126.613 15.7912 126.246 15.7912C125.984 15.7912 125.722 15.7398 125.512 15.5854C125.303 15.4311 125.145 15.2768 124.988 15.0711L124.254 13.7851C125.565 12.5507 126.98 11.6248 128.448 11.0075C129.969 10.3903 131.646 10.0817 133.429 10.0817C134.74 10.0817 135.945 10.2874 136.942 10.6989C137.938 11.1104 138.829 11.7277 139.511 12.4992C140.192 13.2708 140.716 14.1966 141.083 15.2768C141.45 16.357 141.608 17.5401 141.608 18.826V33.6399H141.817ZM131.07 31.1709C131.804 31.1709 132.485 31.1195 133.062 30.9652C133.691 30.8109 134.215 30.6051 134.792 30.3479C135.316 30.0907 135.841 29.7821 136.312 29.3706C136.784 28.9591 137.256 28.5476 137.728 28.0847V23.301C135.841 23.301 134.215 23.4039 132.852 23.6611C131.541 23.9183 130.44 24.2269 129.602 24.587C128.763 24.947 128.134 25.41 127.767 25.9243C127.4 26.4387 127.19 27.0045 127.19 27.6732C127.19 28.2904 127.295 28.8048 127.505 29.2677C127.714 29.7307 127.976 30.0907 128.343 30.3479C128.71 30.6565 129.077 30.8623 129.549 30.9652C130.021 31.068 130.493 31.1709 131.07 31.1709Z" fill="#1D1D1B"/>
<path d="M149 0V33.6399H144.858V0H149Z" fill="#1D1D1B"/>
</svg>
