<svg width="13" height="14" viewBox="0 0 13 14" fill="none" xmlns="http://www.w3.org/2000/svg">
<path d="M6.4125 0C4.46213 0 2.88104 1.52223 2.88104 3.4C2.88104 5.27777 4.46213 6.8 6.4125 6.8C8.36287 6.8 9.94396 5.27777 9.94396 3.4C9.94396 1.52223 8.36287 0 6.4125 0Z" fill="#44B3FA"/>
<path d="M8.49654 8.31262C7.11592 8.10049 5.70909 8.10049 4.32847 8.31262L4.18048 8.33536C2.23513 8.63427 0.803711 10.2498 0.803711 12.1464C0.803711 13.1701 1.66567 14 2.72895 14H10.0961C11.1593 14 12.0213 13.1701 12.0213 12.1464C12.0213 10.2498 10.5899 8.63427 8.64452 8.33536L8.49654 8.31262Z" fill="#44B3FA"/>
</svg>
