<svg width="147" height="40" viewBox="0 0 147 40" fill="none" xmlns="http://www.w3.org/2000/svg">
<path d="M59.7336 26.5837V24.3895C58.6052 26.1449 56.6617 27.2107 54.5929 27.2107C50.9568 27.2107 48.4492 24.3895 48.4492 20.5027V10.3467H53.2137V19.6877C53.2137 21.6311 54.3421 23.073 56.2229 23.073C58.1036 23.073 59.6082 21.5684 59.6082 19.4996V10.3467H64.3728V26.5837H59.7336Z" fill="white"/>
<path d="M78.6037 27.2106C76.4095 27.2106 74.5287 26.2702 73.2749 24.6403V33.9186H68.5104V10.3466H73.2122V12.2901C74.5287 10.6601 76.4095 9.71973 78.6037 9.71973C83.1175 9.71973 86.3147 13.3558 86.3147 18.4965C86.3147 23.6372 83.1175 27.2106 78.6037 27.2106ZM81.5502 18.4965C81.5502 15.9262 79.7321 14.0454 77.2872 14.0454C74.8422 14.0454 73.0242 15.9262 73.0242 18.4965C73.0242 21.0669 74.7795 22.9476 77.2872 22.9476C79.7948 22.9476 81.5502 21.0669 81.5502 18.4965Z" fill="white"/>
<path d="M94.3392 10.3466V12.5408C95.4677 10.7855 97.4111 9.71973 99.4799 9.71973C103.116 9.71973 105.624 12.5408 105.624 16.4277V26.5837H100.859V17.3054C100.859 15.3619 99.7307 13.92 97.8499 13.92C95.9692 13.92 94.4646 15.4246 94.4646 17.4935V26.6464H89.7001V10.3466H94.3392Z" fill="white"/>
<path d="M120.419 26.5837V24.3895C119.29 26.1449 117.347 27.2107 115.278 27.2107C111.642 27.2107 109.134 24.3895 109.134 20.5027V10.3467H113.899V19.6877C113.899 21.6311 115.027 23.073 116.908 23.073C118.789 23.073 120.293 21.5684 120.293 19.4996V10.3467H125.058V26.5837H120.419Z" fill="white"/>
<path d="M139.289 27.2106C137.095 27.2106 135.214 26.2702 133.96 24.6403V33.9186H129.196V10.3466H133.898V12.2901C135.214 10.6601 137.095 9.71973 139.289 9.71973C143.803 9.71973 147 13.3558 147 18.4965C147 23.6372 143.803 27.2106 139.289 27.2106ZM142.235 18.4965C142.235 15.9262 140.417 14.0454 137.972 14.0454C135.528 14.0454 133.709 15.9262 133.709 18.4965C133.709 21.0669 135.465 22.9476 137.972 22.9476C140.48 22.9476 142.235 21.0669 142.235 18.4965Z" fill="white"/>
<path d="M30.276 0.0105879C30.276 0.0105879 30.276 -0.0132349 30.276 0.0105879C24.7014 0.0105879 20.1923 4.34634 20.1923 9.70648V16.4483C20.1923 19.0927 18.0615 21.332 15.3362 21.4273C12.4622 21.5226 10.1085 19.3071 10.1085 16.5675C10.1085 21.8561 14.5186 26.1681 19.994 26.2634C25.6677 26.3825 30.3008 21.8085 30.3008 16.3531V0.0105879H30.276Z" fill="url(#paint0_linear_1001_1668)"/>
<path d="M0 39.5803C5.57454 39.5803 10.0837 35.2446 10.0837 29.8844V9.73032C10.0837 7.03834 12.3383 4.87046 15.138 4.87046C17.9129 4.87046 20.1922 7.03834 20.1922 9.73032C20.1922 4.37018 15.6831 0.0344238 10.1085 0.0344238C4.53396 0.0344238 0.0247754 4.37018 0.0247754 9.73032V39.5803H0Z" fill="url(#paint1_linear_1001_1668)"/>
<defs>
<linearGradient id="paint0_linear_1001_1668" x1="20.1859" y1="-0.00151407" x2="20.1859" y2="26.2897" gradientUnits="userSpaceOnUse">
<stop stop-color="#7727E1" stop-opacity="0.4"/>
<stop offset="1" stop-color="#7727E1"/>
</linearGradient>
<linearGradient id="paint1_linear_1001_1668" x1="10.0901" y1="-0.00150101" x2="10.0901" y2="39.5686" gradientUnits="userSpaceOnUse">
<stop stop-color="#62D4A1"/>
<stop offset="1" stop-color="#62D4A1" stop-opacity="0.2"/>
</linearGradient>
</defs>
</svg>
